<?xml version="1.0" encoding="iso-8859-1"?>
<!-- Generator: Adobe Illustrator 19.0.0, SVG Export Plug-In . SVG Version: 6.00 Build 0)  -->
<svg version="1.1" id="Layer_1" xmlns="http://www.w3.org/2000/svg" xmlns:xlink="http://www.w3.org/1999/xlink" x="0px" y="0px"
	 viewBox="0 0 512.001 512.001" style="enable-background:new 0 0 512.001 512.001;" xml:space="preserve">
<g>
	<path style="fill:#6699CC;" d="M150.651,243.022l-1.984-1.556l-8.903,13.957c-3.336-2.542-6.877-4.83-10.61-6.804l8.896-13.945
		l-2.238-1.148c-13.28-6.828-27.584-10.29-42.511-10.29C41.856,223.237,0,265.09,0,316.536c0,51.447,41.856,93.303,93.302,93.303
		c42.679,0,79.859-28.885,90.413-70.245l0.623-2.44l-13.093-2.049l1.562-7.451l-3.151-2.535c0.017-0.149,0.036-0.296,0.052-0.446
		c0.013-0.129,0.031-0.259,0.045-0.392c0.072-0.709,0.115-1.424,0.162-2.139l16.351,2.558l0.152-2.515
		c0.125-2.09,0.186-3.939,0.186-5.65C186.604,287.679,173.5,260.883,150.651,243.022z M152.841,320.11
		c-0.024,0.37-0.056,0.737-0.085,1.103c-0.063,0.82-0.141,1.634-0.237,2.446c-1.622,13.561-7.796,25.743-16.967,34.95
		c-0.054,0.056-0.111,0.113-0.166,0.168c-0.613,0.608-1.236,1.204-1.875,1.788c-0.224,0.202-0.451,0.396-0.678,0.595
		c-0.327,0.291-0.661,0.58-0.994,0.865c-8.621,7.269-19.207,12.05-30.478,13.607c-0.299,0.039-0.601,0.078-0.902,0.114
		c-0.514,0.064-1.027,0.123-1.544,0.172c-0.716,0.066-1.433,0.122-2.155,0.165c-0.271,0.017-0.539,0.027-0.811,0.04
		c-0.877,0.038-1.758,0.067-2.644,0.067c-1.029,0-2.051-0.026-3.065-0.077c-2.031-0.103-4.036-0.309-6.008-0.611
		c-0.987-0.152-1.965-0.327-2.933-0.526c-27.159-5.571-47.65-29.658-47.65-58.439c0-28.781,20.491-52.868,47.65-58.44
		c0.968-0.199,1.946-0.373,2.933-0.526c1.973-0.302,3.977-0.505,6.008-0.61c1.015-0.053,2.036-0.076,3.065-0.076
		c0.886,0,1.767,0.027,2.646,0.068c0.269,0.011,0.536,0.024,0.806,0.039c0.723,0.04,1.444,0.096,2.159,0.165
		c0.515,0.049,1.03,0.11,1.542,0.171c0.3,0.036,0.601,0.074,0.902,0.115c11.269,1.56,21.857,6.336,30.478,13.609
		c0.334,0.284,0.667,0.571,0.994,0.862c0.226,0.199,0.454,0.394,0.678,0.595c0.637,0.583,1.262,1.179,1.875,1.791
		c0.056,0.054,0.113,0.112,0.166,0.168c9.172,9.207,15.346,21.389,16.967,34.95c0.096,0.811,0.175,1.625,0.237,2.444
		c0.029,0.37,0.063,0.735,0.085,1.105c0.071,1.188,0.116,2.383,0.116,3.571C152.956,317.727,152.911,318.92,152.841,320.11z"/>
	<path style="fill:#6699CC;" d="M511.985,315.814c-0.105-11.266-2.267-22.388-6.286-32.825c-0.197-0.52-0.398-1.037-0.606-1.551
		c-0.242-0.595-0.486-1.189-0.739-1.78c-0.373-0.875-0.765-1.744-1.166-2.604c-0.135-0.296-0.263-0.594-0.404-0.887
		c-0.486-1.016-0.989-2.025-1.515-3.025c-0.056-0.108-0.121-0.208-0.177-0.316c-0.581-1.1-1.194-2.183-1.819-3.26
		c-0.137-0.235-0.267-0.478-0.404-0.711c-8.507-14.352-20.943-26.604-36.764-34.915c-12.005-6.308-24.771-9.703-37.5-10.49
		c-0.193-0.012-0.383-0.024-0.576-0.034c-1.123-0.063-2.244-0.109-3.367-0.13c-0.656-0.016-1.311-0.018-1.97-0.018
		c-0.657,0-1.314,0.002-1.969,0.018c-1.124,0.022-2.247,0.068-3.371,0.13c-0.19,0.011-0.381,0.021-0.573,0.034
		c-12.73,0.787-25.495,4.182-37.5,10.49c-15.821,8.311-28.257,20.561-36.762,34.915c-0.139,0.233-0.268,0.476-0.404,0.711
		c-0.627,1.077-1.24,2.16-1.82,3.26c-0.058,0.109-0.12,0.209-0.176,0.316c-0.526,1.001-1.03,2.009-1.515,3.025
		c-0.14,0.293-0.268,0.591-0.404,0.887c-0.402,0.86-0.792,1.729-1.166,2.604c-0.255,0.59-0.496,1.185-0.738,1.78
		c-0.208,0.514-0.41,1.031-0.609,1.551c-4.016,10.436-6.178,21.558-6.285,32.825h-0.015l0.015,0.018
		c-0.087,9.519,1.3,19.13,4.231,28.506c0.04,0.134,0.085,0.267,0.127,0.401c0.299,0.942,0.6,1.881,0.93,2.818
		c0.396,1.132,0.816,2.251,1.255,3.363c0.112,0.279,0.225,0.557,0.339,0.837c5.219,12.899,13.283,24.48,23.709,33.899
		c0.007,0.007,0.016,0.013,0.022,0.02c2.142,1.934,4.384,3.775,6.72,5.519c0.197,0.146,0.393,0.293,0.592,0.439
		c2.251,1.654,4.589,3.219,7.01,4.682c0.177,0.105,0.354,0.208,0.529,0.312c1.146,0.682,2.31,1.345,3.491,1.983
		c0.047,0.026,0.094,0.051,0.141,0.075c0.275,0.149,0.543,0.305,0.821,0.45c0.884,0.466,1.779,0.886,2.672,1.318
		c0.199,0.096,0.395,0.199,0.597,0.296c9.662,4.609,19.759,7.398,29.893,8.506c0.016,0.002,0.03,0.002,0.047,0.004
		c1.352,0.148,2.7,0.267,4.052,0.354c0.325,0.02,0.65,0.037,0.973,0.056c1.037,0.056,2.071,0.099,3.105,0.12
		c0.678,0.017,1.356,0.019,2.036,0.021c0.68-0.002,1.358-0.004,2.036-0.021c1.035-0.022,2.071-0.065,3.104-0.12
		c0.327-0.019,0.652-0.036,0.975-0.056c1.352-0.087,2.701-0.207,4.051-0.354c0.016-0.002,0.03-0.002,0.049-0.004
		c10.135-1.106,20.231-3.896,29.892-8.506c0.202-0.096,0.398-0.199,0.598-0.296c0.893-0.432,1.788-0.852,2.672-1.318
		c0.274-0.146,0.545-0.302,0.818-0.45c0.05-0.025,0.094-0.05,0.144-0.075c1.181-0.637,2.345-1.3,3.491-1.983
		c0.174-0.105,0.35-0.208,0.527-0.312c2.421-1.466,4.759-3.028,7.012-4.682c0.199-0.146,0.395-0.293,0.592-0.439
		c2.336-1.744,4.576-3.585,6.719-5.519c0.008-0.007,0.015-0.013,0.023-0.02c10.423-9.418,18.489-21,23.708-33.901
		c0.114-0.278,0.228-0.555,0.34-0.834c0.437-1.112,0.86-2.231,1.253-3.363c0.331-0.936,0.634-1.876,0.931-2.818
		c0.043-0.134,0.085-0.267,0.127-0.401c2.932-9.376,4.319-18.987,4.23-28.506l0.016-0.018H511.985z M478.33,317.792
		c-0.018,0.71-0.041,1.418-0.082,2.123c-0.009,0.15-0.017,0.3-0.027,0.448c-1.32,20.043-12.711,38.966-31.751,48.976
		c-0.018,0.009-0.035,0.018-0.054,0.027c-0.792,0.415-1.596,0.811-2.4,1.188c-0.284,0.132-0.571,0.259-0.858,0.387
		c-0.529,0.237-1.056,0.47-1.588,0.692c-0.614,0.253-1.234,0.496-1.858,0.73c-0.212,0.078-0.423,0.162-0.635,0.241
		c-0.872,0.315-1.754,0.617-2.644,0.895c-4.654,1.448-9.397,2.307-14.141,2.603c-0.147,0.007-0.296,0.02-0.443,0.028
		c-0.664,0.036-1.328,0.049-1.996,0.063c-0.372,0.008-0.742,0.02-1.117,0.02c-0.435,0-0.868-0.013-1.302-0.022
		c-0.601-0.013-1.205-0.026-1.81-0.058c-0.207-0.011-0.417-0.028-0.627-0.043c-0.821-0.052-1.643-0.114-2.463-0.199
		c0,0-0.017-0.002-0.025-0.004c-3.867-0.412-7.725-1.206-11.521-2.388c-0.894-0.278-1.775-0.58-2.647-0.895
		c-0.211-0.078-0.421-0.16-0.628-0.241c-0.627-0.234-1.249-0.478-1.863-0.73c-0.531-0.222-1.056-0.452-1.58-0.69
		c-0.291-0.128-0.58-0.256-0.865-0.39c-0.806-0.377-1.607-0.772-2.402-1.188c-0.016-0.01-0.034-0.019-0.051-0.027
		c-19.04-10.01-30.428-28.931-31.751-48.969c-0.011-0.156-0.02-0.309-0.029-0.461c-0.039-0.702-0.065-1.405-0.08-2.11
		c-0.008-0.41-0.015-0.819-0.012-1.232c-0.002-0.446,0.004-0.89,0.015-1.335c0.016-0.67,0.038-1.336,0.075-2.003
		c0.011-0.189,0.022-0.38,0.034-0.57c1.273-19.05,11.641-37.08,29.03-47.401c0.038-0.024,0.077-0.048,0.118-0.071
		c0.793-0.467,1.6-0.915,2.419-1.352c0.094-0.049,0.186-0.101,0.28-0.15c8.546-4.471,17.727-6.766,27.295-6.816
		c0.123,0,0.244-0.013,0.367-0.021c0.122,0.008,0.242,0.021,0.366,0.021c9.566,0.049,18.749,2.345,27.293,6.816
		c0.094,0.049,0.188,0.101,0.282,0.15c0.819,0.437,1.627,0.885,2.419,1.352c0.04,0.022,0.078,0.047,0.118,0.071
		c17.386,10.319,27.754,28.348,29.027,47.395c0.013,0.197,0.025,0.392,0.036,0.588c0.038,0.66,0.06,1.32,0.075,1.982
		c0.01,0.451,0.015,0.904,0.015,1.356C478.342,316.984,478.337,317.386,478.33,317.792z"/>
</g>
<g style="opacity:0.19;">
	<path style="fill:#202121;" d="M14.631,316.536c0-49.036,38.032-89.329,86.144-92.999c-2.472-0.197-4.963-0.302-7.473-0.302
		C41.856,223.237,0,265.09,0,316.536c0,51.447,41.856,93.303,93.302,93.303c2.503,0,4.988-0.11,7.448-0.303
		C52.651,405.853,14.631,365.566,14.631,316.536z"/>
</g>
<g>
	<path style="fill:#485D6D;" d="M225.591,313.403c-13.044,0-23.654,10.612-23.654,23.654c0,12.995,10.533,23.57,23.509,23.647
		l-7.878-20.576c-1.697-4.43,0.522-9.399,4.952-11.096c4.435-1.699,9.401,0.522,11.096,4.952l7.865,20.544
		c4.757-4.329,7.765-10.548,7.765-17.472C249.245,324.015,238.635,313.403,225.591,313.403z"/>
	<path style="fill:#485D6D;" d="M228.785,363.017l-3.354-0.02c-14.218-0.087-25.784-11.724-25.784-25.94
		c0-14.307,11.638-25.945,25.945-25.945c14.308,0,25.947,11.639,25.947,25.945c0,7.257-3.103,14.244-8.513,19.168l-2.484,2.258
		l-9.065-23.679c-0.928-2.421-3.294-4.049-5.885-4.049c-0.767,0-1.525,0.14-2.251,0.418c-1.573,0.601-2.818,1.782-3.502,3.318
		c-0.688,1.538-0.731,3.25-0.13,4.821L228.785,363.017z M225.591,315.694c-11.779,0-21.363,9.585-21.363,21.363
		c0,10.526,7.705,19.337,17.769,21.055l-6.569-17.162c-1.041-2.715-0.96-5.67,0.225-8.327c1.185-2.656,3.333-4.69,6.046-5.728
		c1.251-0.479,2.56-0.722,3.892-0.722c4.478,0,8.562,2.811,10.163,6.995l6.559,17.128c2.98-3.755,4.641-8.425,4.641-13.236
		C246.955,325.279,237.371,315.694,225.591,315.694z"/>
</g>
<g>
	<path style="fill:#3B4F5B;" d="M413.932,312.507c-3.468,0-6.735-2.115-8.037-5.552l-64.846-171.331
		c-1-2.641-0.637-5.604,0.966-7.925c1.605-2.323,4.247-3.71,7.07-3.71h34.814c4.746,0,8.593,3.847,8.593,8.593
		c0,4.746-3.847,8.593-8.593,8.593h-22.374l60.445,159.699c1.68,4.438-0.558,9.399-4.995,11.079
		C415.97,312.328,414.943,312.507,413.932,312.507z"/>
	<path style="fill:#3B4F5B;" d="M169.813,166.993c-3.68,0-7.087-2.383-8.217-6.09l-6.44-21.121
		c-1.384-4.54,1.174-9.342,5.714-10.724c4.537-1.39,9.34,1.173,10.725,5.711l6.44,21.121c1.384,4.541-1.173,9.342-5.714,10.725
		C171.487,166.872,170.644,166.993,169.813,166.993z"/>
	<path style="fill:#3B4F5B;" d="M214.038,311.378c-3.68,0-7.087-2.385-8.217-6.088l-44.026-144.387
		c-1.382-4.538,1.176-9.34,5.714-10.725c4.538-1.384,9.343,1.173,10.725,5.714l44.026,144.387c1.385,4.538-1.173,9.34-5.713,10.725
		C215.712,311.258,214.868,311.378,214.038,311.378z"/>
	<path style="fill:#3B4F5B;" d="M247.161,315.876c-1.815,0-3.646-0.573-5.202-1.756c-3.775-2.875-4.503-8.266-1.628-12.043
		L338.69,172.91L182.9,192.065l-73.237,114.808c-2.553,4-7.872,5.171-11.867,2.623c-4-2.551-5.176-7.864-2.623-11.865
		l75.414-118.218c1.379-2.161,3.651-3.596,6.196-3.908l180.047-22.138c3.437-0.415,6.781,1.255,8.501,4.252
		c1.721,2.996,1.479,6.733-0.615,9.483L254.002,312.489C252.312,314.708,249.752,315.876,247.161,315.876z"/>
	<path style="fill:#3B4F5B;" d="M190.915,340.399c-0.441,0-0.888-0.032-1.337-0.105l-81.065-12.678
		c-4.689-0.734-7.895-5.129-7.163-9.82c0.735-4.686,5.127-7.896,9.819-7.161l81.065,12.678c4.688,0.735,7.895,5.129,7.163,9.819
		C198.73,337.372,195.074,340.399,190.915,340.399z"/>
</g>
<path style="fill:#485D6D;" d="M225.591,377.899c-22.519,0-40.84-18.321-40.84-40.842c0-22.519,18.32-40.84,40.84-40.84
	c22.52,0,40.84,18.32,40.84,40.84C266.431,359.578,248.112,377.899,225.591,377.899z M225.591,313.403
	c-13.044,0-23.654,10.612-23.654,23.654c0,13.043,10.611,23.656,23.654,23.656s23.654-10.613,23.654-23.656
	C249.245,324.015,238.635,313.403,225.591,313.403z"/>
<path style="fill:#6699CC;" d="M291.892,222.83c-0.325-2.257-1.531-4.293-3.356-5.658l-2.981-2.229l4.254-5.681
	c2.841-3.8,2.067-9.185-1.732-12.029c-3.802-2.844-9.185-2.068-12.028,1.731l-4.253,5.681l-2.98-2.231
	c-3.8-2.843-9.186-2.07-12.028,1.732L223.972,248c-2.844,3.798-2.071,9.183,1.73,12.028l19.72,14.758
	c1.494,1.119,3.303,1.713,5.149,1.713c0.407,0,0.816-0.028,1.224-0.087c2.255-0.324,4.289-1.532,5.658-3.356l32.815-43.851
	C291.632,227.376,292.218,225.084,291.892,222.83z"/>
<g>
	<path style="fill:#3B4F5B;" d="M295.529,252.358c-1.739,0-3.493-0.526-5.014-1.619l-15.624-11.247
		c-3.851-2.774-4.724-8.143-1.951-11.994c2.774-3.852,8.142-4.726,11.995-1.954l15.62,11.247c3.851,2.776,4.726,8.143,1.954,11.994
		C300.831,251.117,298.199,252.358,295.529,252.358z"/>
	<path style="fill:#3B4F5B;" d="M274.154,278.789c-1.739,0-3.495-0.526-5.016-1.619l-14.03-10.101
		c-3.85-2.774-4.724-8.143-1.951-11.996c2.773-3.849,8.142-4.721,11.994-1.952l14.03,10.1c3.85,2.776,4.726,8.144,1.951,11.997
		C279.454,277.55,276.822,278.789,274.154,278.789z"/>
	<path style="fill:#3B4F5B;" d="M401.608,170.49c-3.325,0-6.491-1.942-7.892-5.19c-1.883-4.357,0.124-9.414,4.482-11.296
		c10.041-4.334,16.197-9.815,18.296-16.283c1.37-4.221,0.804-8.351-0.021-11.284h-45.42c-4.745,0-8.593-3.848-8.593-8.594
		c0-4.745,3.848-8.592,8.593-8.592h51.173c3.033,0,5.841,1.597,7.389,4.206c0.338,0.569,8.231,14.135,3.227,29.564
		c-3.692,11.379-13.055,20.381-27.834,26.761C403.901,170.262,402.746,170.49,401.608,170.49z"/>
</g>
<g>
	<path style="fill:#485D6D;" d="M418.712,294.449c-12.18,0-22.091,9.909-22.091,22.089c0,12.182,9.911,22.091,22.091,22.091
		s22.091-9.909,22.091-22.091C440.802,304.357,430.892,294.449,418.712,294.449z"/>
	<path style="fill:#485D6D;" d="M93.304,294.449c-12.182,0-22.091,9.909-22.091,22.089c0,12.182,9.909,22.091,22.091,22.091
		c12.18,0,22.089-9.909,22.089-22.091C115.393,304.357,105.484,294.449,93.304,294.449z"/>
</g>
<path style="fill:#3B4F5B;" d="M267.145,409.984h-16.921c-3.56,0-6.752-2.195-8.026-5.52l-24.63-64.334
	c-1.697-4.43,0.522-9.399,4.952-11.096c4.43-1.699,9.401,0.52,11.096,4.952l22.518,58.813h11.012c4.746,0,8.593,3.847,8.593,8.593
	C275.738,406.137,271.891,409.984,267.145,409.984z"/>
<path style="fill:#F04C35;" d="M133.905,102.017h58.537c9.461,0,17.132,1.942,17.132,11.404v9.994c0,0.419,0.029,0.804,0,1.17
	l-68.142,14.494l-7.528,1.47c-9.461,0-17.132-7.673-17.132-17.134v-4.266C116.773,109.687,124.444,102.017,133.905,102.017z"/>
<path style="opacity:0.19;fill:#202121;enable-background:new    ;" d="M151.579,125.846v-9.105c0-5.59,1.993-10.723,5.307-14.724
	h-22.981c-9.461,0-17.132,7.671-17.132,17.132v4.266c0,9.461,7.671,17.134,17.132,17.134l7.528-1.47l12.748-2.712
	C152.531,133.192,151.579,129.619,151.579,125.846z"/>
<g>
</g>
<g>
</g>
<g>
</g>
<g>
</g>
<g>
</g>
<g>
</g>
<g>
</g>
<g>
</g>
<g>
</g>
<g>
</g>
<g>
</g>
<g>
</g>
<g>
</g>
<g>
</g>
<g>
</g>
</svg>
