<?xml version="1.0" encoding="iso-8859-1"?>
<!-- Generator: Adobe Illustrator 19.0.0, SVG Export Plug-In . SVG Version: 6.00 Build 0)  -->
<svg version="1.1" id="Layer_1" xmlns="http://www.w3.org/2000/svg" xmlns:xlink="http://www.w3.org/1999/xlink" x="0px" y="0px"
	 viewBox="0 0 512 512" style="enable-background:new 0 0 512 512;" xml:space="preserve">
<path style="fill:#C9D1E3;" d="M511.908,431.556L476.575,150.37c-0.442-3.367-12.598,25.03-15.543,23.343
	c-2.943-1.689-8.88,5.79-12.008,7.107l6.549-5.059c-2.092,0.882-4.165,4.367-6.549,5.059l-5.438-0.726
	c-4.357,1.266-3.456,0.729-3.799,5.251l-9.195,246.803c-0.228,3.018,0.81,5.997,2.869,8.216c2.059,2.22,4.949,3.481,7.976,3.481
	h59.688c3.131,0,6.111-1.351,8.176-3.704C511.364,437.789,512.315,434.66,511.908,431.556z"/>
<g style="opacity:0.19;">
	<path style="fill:#202121;" d="M453.117,177.658l2.454-1.897C454.757,176.104,453.946,176.842,453.117,177.658z"/>
	<path style="fill:#202121;" d="M453.117,177.658l-4.095,3.162c0.841-0.355,1.89-1.159,3.024-2.108
		C452.409,178.364,452.765,178.005,453.117,177.658z"/>
	<path style="fill:#202121;" d="M479.874,176.635l-2.264-18.02c-1.724,0.202-4.019,0.472-6.802,0.796
		c-3.719,7.001-8.15,15.234-9.776,14.303c-2.152-1.234-5.9,2.424-8.984,5c-0.967,0.936-1.965,1.799-3.024,2.108l-5.438-0.726
		c-4.357,1.266-3.456,0.729-3.799,5.251l-9.195,246.803c-0.228,3.018,0.81,5.997,2.869,8.216c2.059,2.22,4.949,3.481,7.976,3.481
		h18.492L479.874,176.635z"/>
</g>
<path style="fill:#C9D1E3;" d="M461.032,161.08l-39.109,33.303c-9.496-2.853-18.239-7.982-25.537-15.111l-0.635-0.62
	c-2.03-1.984-4.758-3.095-7.597-3.095H33.347c-5.662,0-10.376,4.346-10.839,9.988L0.036,459.965
	c-0.248,3.029,0.783,6.024,2.842,8.259c2.059,2.235,4.958,3.505,7.998,3.505h414.769c5.66,0,10.374-4.341,10.839-9.981
	l20.869-253.259c0.061-0.737,0.039-1.472-0.048-2.195L461.032,161.08z"/>
<path style="fill:#F04C35;" d="M429.62,98.293c2.126-3.35,2.26-7.59,0.348-11.067c-1.911-3.477-5.563-5.638-9.531-5.638H40.467
	c-5.687,0-10.414,4.382-10.844,10.053l-4.921,64.966l-2.194,28.736h11.746h22.72h361.63c3.885,0,7.474-2.071,9.418-5.435
	c1.942-3.365,1.943-7.508,0.002-10.873l-1.881-3.265c-5.424-9.399-8.292-20.102-8.292-30.947c0-11.769,3.335-23.248,9.648-33.191
	L429.62,98.293z"/>
<g style="opacity:0.19;">
	<path style="fill:#202121;" d="M450.143,185.346h-14.948c5.589,4.018,11.743,7.08,18.266,9.038l5.191-4.42l0.818-9.917
		C457.507,183.325,453.972,185.346,450.143,185.346z"/>
	<path style="fill:#202121;" d="M459.563,169.037c0.273,0.472,0.497,0.962,0.693,1.459l0.776-9.416l-4.044,3.443
		c0.228,0.419,0.456,0.837,0.694,1.248L459.563,169.037z"/>
	<path style="fill:#202121;" d="M22.133,459.965l22.471-274.421c0.007-0.069,0.02-0.132,0.025-0.2h-0.025l2.194-28.736l4.922-64.966
		c0.43-5.671,5.155-10.053,10.844-10.053H40.467c-5.687,0-10.414,4.382-10.844,10.053l-4.921,64.966l-2.194,28.736h0.026
		c-0.008,0.069-0.021,0.132-0.026,0.2L0.036,459.965c-0.248,3.029,0.783,6.024,2.842,8.259c2.059,2.235,4.958,3.505,7.998,3.505
		h22.095c-3.039,0-5.938-1.27-7.998-3.505C22.915,465.989,21.886,462.994,22.133,459.965z"/>
</g>
<path style="opacity:0.19;fill:#202121;enable-background:new    ;" d="M397.226,134.555c0-31.09,23.626-56.664,53.904-59.746
	c-3.679-0.693-7.466-1.072-11.345-1.072c-33.684,0-61.086,27.404-61.086,61.088s27.402,61.086,61.086,61.086
	c4.551,0,8.983-0.517,13.255-1.464C421.854,192.265,397.226,166.295,397.226,134.555z"/>
<g>
	<path style="fill:#485D6D;" d="M105.846,122.429c-0.326,0-0.655-0.022-0.985-0.06c-4.472-0.539-7.66-4.6-7.123-9.074l7.931-65.841
		c0.539-4.473,4.599-7.655,9.074-7.124c4.472,0.539,7.662,4.6,7.122,9.074l-7.931,65.841
		C113.435,119.387,109.914,122.429,105.846,122.429z"/>
	<path style="fill:#485D6D;" d="M150.06,122.429c-0.326,0-0.655-0.022-0.985-0.06c-4.472-0.539-7.662-4.6-7.123-9.074l7.931-65.841
		c0.537-4.473,4.597-7.655,9.073-7.124c4.472,0.539,7.66,4.6,7.123,9.074l-7.931,65.841
		C157.65,119.387,154.129,122.429,150.06,122.429z"/>
	<path style="fill:#485D6D;" d="M334.61,122.429c-0.325,0-0.655-0.022-0.985-0.06c-4.472-0.539-7.662-4.6-7.122-9.074l7.931-65.841
		c0.538-4.473,4.6-7.655,9.073-7.124c4.472,0.539,7.66,4.6,7.123,9.074l-7.931,65.841
		C342.198,119.387,338.679,122.429,334.61,122.429z"/>
	<path style="fill:#485D6D;" d="M378.824,122.429c-0.325,0-0.655-0.022-0.985-0.06c-4.472-0.539-7.662-4.6-7.122-9.074l7.929-65.841
		c0.539-4.473,4.6-7.655,9.074-7.124c4.472,0.539,7.662,4.6,7.122,9.074l-7.929,65.841
		C386.412,119.387,382.893,122.429,378.824,122.429z"/>
</g>
<path style="fill:#6699CC;" d="M430.36,64.311c-38.881,0-70.512,31.634-70.512,70.514s31.631,70.512,70.512,70.512
	c38.883,0,70.514-31.631,70.514-70.512C500.873,95.944,469.242,64.311,430.36,64.311z M399.685,127.168
	c1.315-1.368,3.084-2.122,4.981-2.122c1.79,0,3.488,0.682,4.781,1.923l14.375,13.804l27.442-26.446
	c1.293-1.246,2.995-1.93,4.789-1.93c1.893,0,3.658,0.749,4.971,2.111c2.643,2.742,2.562,7.12-0.179,9.763l-32.227,31.054
	c-1.293,1.246-2.994,1.932-4.789,1.932c-1.792,0-3.491-0.684-4.782-1.925l-19.164-18.401
	C397.138,134.293,397.05,129.914,399.685,127.168z"/>
<path style="opacity:0.19;fill:#202121;enable-background:new    ;" d="M376.818,134.825c0-35.997,27.118-65.759,61.993-69.981
	c-2.772-0.34-5.589-0.533-8.451-0.533c-38.881,0-70.512,31.634-70.512,70.514s31.631,70.512,70.512,70.512
	c2.863,0,5.68-0.194,8.451-0.533C403.936,200.584,376.818,170.819,376.818,134.825z"/>
<g>
	<path style="fill:#485D6D;" d="M462.985,112.62c-1.83-1.899-4.29-2.944-6.93-2.944c-2.503,0-4.875,0.956-6.677,2.694L423.819,137
		l-12.489-11.994c-1.801-1.727-4.167-2.679-6.663-2.679c-2.643,0-5.108,1.049-6.944,2.959c-3.673,3.828-3.549,9.932,0.278,13.607
		l19.163,18.399c1.799,1.729,4.167,2.683,6.665,2.683c2.505,0,4.874-0.958,6.677-2.696l32.227-31.054
		c1.848-1.78,2.893-4.178,2.94-6.75C465.72,116.902,464.765,114.468,462.985,112.62z"/>
	<path style="fill:#485D6D;" d="M331.274,263.834h-31.765c-4.504,0-8.156-3.651-8.156-8.156s3.652-8.156,8.156-8.156h31.765
		c4.506,0,8.156,3.651,8.156,8.156C339.431,260.182,335.78,263.834,331.274,263.834z"/>
	<path style="fill:#485D6D;" d="M388.195,263.834h-31.765c-4.504,0-8.156-3.651-8.156-8.156s3.652-8.156,8.156-8.156h31.765
		c4.506,0,8.156,3.651,8.156,8.156C396.351,260.182,392.7,263.834,388.195,263.834z"/>
	<path style="fill:#485D6D;" d="M98.02,311.471H66.255c-4.504,0-8.156-3.651-8.156-8.156c0-4.504,3.652-8.156,8.156-8.156H98.02
		c4.506,0,8.156,3.652,8.156,8.156C106.176,307.82,102.525,311.471,98.02,311.471z"/>
	<path style="fill:#485D6D;" d="M154.941,311.471h-31.765c-4.504,0-8.156-3.651-8.156-8.156c0-4.504,3.652-8.156,8.156-8.156h31.765
		c4.506,0,8.156,3.652,8.156,8.156C163.097,307.82,159.445,311.471,154.941,311.471z"/>
	<path style="fill:#485D6D;" d="M211.861,311.471h-31.765c-4.506,0-8.156-3.651-8.156-8.156c0-4.504,3.651-8.156,8.156-8.156h31.765
		c4.504,0,8.156,3.652,8.156,8.156C220.017,307.82,216.364,311.471,211.861,311.471z"/>
	<path style="fill:#485D6D;" d="M268.78,311.471h-31.765c-4.506,0-8.156-3.651-8.156-8.156c0-4.504,3.651-8.156,8.156-8.156h31.765
		c4.504,0,8.156,3.652,8.156,8.156C276.937,307.82,273.285,311.471,268.78,311.471z"/>
	<path style="fill:#485D6D;" d="M325.699,311.471h-31.765c-4.504,0-8.156-3.651-8.156-8.156c0-4.504,3.652-8.156,8.156-8.156h31.765
		c4.506,0,8.156,3.652,8.156,8.156C333.855,307.82,330.204,311.471,325.699,311.471z"/>
	<path style="fill:#485D6D;" d="M382.619,311.471h-31.765c-4.504,0-8.156-3.651-8.156-8.156c0-4.504,3.652-8.156,8.156-8.156h31.765
		c4.506,0,8.156,3.652,8.156,8.156C390.775,307.82,387.125,311.471,382.619,311.471z"/>
	<path style="fill:#485D6D;" d="M92.444,359.112H60.679c-4.504,0-8.156-3.651-8.156-8.156c0-4.506,3.652-8.156,8.156-8.156h31.765
		c4.504,0,8.156,3.651,8.156,8.156C100.601,355.461,96.949,359.112,92.444,359.112z"/>
	<path style="fill:#485D6D;" d="M149.365,359.112H117.6c-4.504,0-8.156-3.651-8.156-8.156c0-4.506,3.652-8.156,8.156-8.156h31.765
		c4.504,0,8.156,3.651,8.156,8.156S153.868,359.112,149.365,359.112z"/>
	<path style="fill:#485D6D;" d="M206.283,359.112H174.52c-4.506,0-8.156-3.651-8.156-8.156c0-4.506,3.651-8.156,8.156-8.156h31.763
		c4.506,0,8.156,3.651,8.156,8.156S210.788,359.112,206.283,359.112z"/>
	<path style="fill:#485D6D;" d="M263.202,359.112h-31.763c-4.506,0-8.156-3.651-8.156-8.156c0-4.506,3.651-8.156,8.156-8.156h31.763
		c4.506,0,8.156,3.651,8.156,8.156S267.708,359.112,263.202,359.112z"/>
	<path style="fill:#485D6D;" d="M320.123,359.112h-31.765c-4.504,0-8.156-3.651-8.156-8.156c0-4.506,3.652-8.156,8.156-8.156h31.765
		c4.506,0,8.156,3.651,8.156,8.156S324.628,359.112,320.123,359.112z"/>
	<path style="fill:#485D6D;" d="M377.043,359.112h-31.765c-4.504,0-8.156-3.651-8.156-8.156c0-4.506,3.652-8.156,8.156-8.156h31.765
		c4.506,0,8.156,3.651,8.156,8.156C385.2,355.461,381.549,359.112,377.043,359.112z"/>
	<path style="fill:#485D6D;" d="M86.869,406.75H55.104c-4.504,0-8.156-3.652-8.156-8.156c0-4.506,3.652-8.156,8.156-8.156h31.765
		c4.506,0,8.156,3.651,8.156,8.156C95.025,403.098,91.374,406.75,86.869,406.75z"/>
	<path style="fill:#485D6D;" d="M143.789,406.75h-31.765c-4.504,0-8.156-3.652-8.156-8.156c0-4.506,3.652-8.156,8.156-8.156h31.765
		c4.506,0,8.156,3.651,8.156,8.156C151.946,403.098,148.294,406.75,143.789,406.75z"/>
	<path style="fill:#485D6D;" d="M200.71,406.75h-31.765c-4.506,0-8.156-3.652-8.156-8.156c0-4.506,3.651-8.156,8.156-8.156h31.765
		c4.504,0,8.156,3.651,8.156,8.156C208.866,403.098,205.213,406.75,200.71,406.75z"/>
	<path style="fill:#485D6D;" d="M257.629,406.75h-31.765c-4.506,0-8.156-3.652-8.156-8.156c0-4.506,3.651-8.156,8.156-8.156h31.765
		c4.504,0,8.156,3.651,8.156,8.156C265.785,403.098,262.133,406.75,257.629,406.75z"/>
</g>
<g>
</g>
<g>
</g>
<g>
</g>
<g>
</g>
<g>
</g>
<g>
</g>
<g>
</g>
<g>
</g>
<g>
</g>
<g>
</g>
<g>
</g>
<g>
</g>
<g>
</g>
<g>
</g>
<g>
</g>
</svg>
