<?xml version="1.0" encoding="iso-8859-1"?>
<!-- Generator: Adobe Illustrator 19.0.0, SVG Export Plug-In . SVG Version: 6.00 Build 0)  -->
<svg version="1.1" id="Layer_1" xmlns="http://www.w3.org/2000/svg" xmlns:xlink="http://www.w3.org/1999/xlink" x="0px" y="0px"
	 viewBox="0 0 511.999 511.999" style="enable-background:new 0 0 511.999 511.999;" xml:space="preserve">
<rect x="131.318" y="136.373" style="fill:#F5F5F5;" width="95.238" height="299.929"/>
<path style="fill:#6699CC;" d="M410.88,96.923H101.138c-6.07,0-10.989,4.92-10.989,10.989v366.727c0,6.07,4.92,10.989,10.989,10.989
	h309.741c6.071,0,10.989-4.92,10.989-10.989V107.913C421.869,101.843,416.95,96.923,410.88,96.923z M178.709,215.721
	c-18.22,0-33.043-14.823-33.043-33.043c0-18.221,14.822-33.045,33.043-33.045c18.219,0,33.045,14.824,33.045,33.045
	C211.753,200.897,196.928,215.721,178.709,215.721z M178.709,256.887c18.219,0,33.045,14.822,33.045,33.043
	c0,18.221-14.825,33.045-33.045,33.045s-33.043-14.823-33.043-33.045C145.666,271.709,160.488,256.887,178.709,256.887z
	 M178.709,364.14c18.219,0,33.045,14.822,33.045,33.043c0,18.219-14.825,33.045-33.045,33.045s-33.043-14.825-33.043-33.045
	C145.666,378.962,160.488,364.14,178.709,364.14z"/>
<g style="opacity:0.19;">
	<path style="fill:#202121;" d="M419.289,471.817H130.019c-5.43,0-9.833-4.402-9.833-9.834V133.81c0-5.433,4.403-9.835,9.833-9.835
		h289.271c0.895,0,1.757,0.129,2.58,0.354v-16.416c0-6.07-4.919-10.989-10.989-10.989H101.138c-6.07,0-10.989,4.92-10.989,10.989
		v366.727c0,6.07,4.92,10.989,10.989,10.989h309.741c6.071,0,10.989-4.92,10.989-10.989v-3.175
		C421.046,471.69,420.185,471.817,419.289,471.817z"/>
</g>
<path style="fill:#C9D1E3;" d="M438.825,65.785h-98.606c-4.855,0-8.791,3.936-8.791,8.791v21.25c0,4.854,3.936,8.791,8.791,8.791
	h73.957V464.75H97.841V104.616h76.136c4.856,0,8.791-3.937,8.791-8.791V74.576c0-4.855-3.936-8.791-8.791-8.791h-100.8
	c-8.771,0-15.905,7.134-15.905,15.901v414.41c0,8.767,7.134,15.903,15.905,15.903h365.648c8.768,0,15.901-7.135,15.901-15.903
	V81.686C454.728,72.919,447.593,65.785,438.825,65.785z"/>
<path style="fill:#485D6D;" d="M330.99,47.906h-26.061c0-0.023,0-0.048,0-0.073C304.929,21.458,283.473,0,257.098,0
	s-47.833,21.458-47.833,47.832c0,0.026,0,0.05,0,0.073h-26.056c-5.052,0-9.146,4.095-9.146,9.145v42.628
	c0,5.05,4.094,9.146,9.146,9.146h147.78c5.05,0,9.144-4.096,9.144-9.146V57.051C340.134,52.001,336.04,47.906,330.99,47.906z
	 M257.098,60.487c-7.159,0-12.983-5.825-12.983-12.982c0-7.16,5.824-12.986,12.983-12.986c7.16,0,12.986,5.825,12.986,12.986
	C270.084,54.662,264.259,60.487,257.098,60.487z"/>
<path style="opacity:0.19;fill:#202121;enable-background:new    ;" d="M209.266,47.832c0,0.026,0,0.05,0,0.073H183.21
	c-5.052,0-9.146,4.095-9.146,9.145v42.628c0,5.05,4.094,9.146,9.146,9.146h3.559V68.487c0-5.128,4.158-9.286,9.288-9.286h21.297
	c4.53,0,4.928-3.633,4.89-5.196c-0.017-0.225-0.032-0.45-0.048-0.676c-0.001-0.011-0.004-0.032-0.004-0.032h0.003
	c-0.067-1.086-0.108-2.178-0.108-3.282c0-22.004,12.873-40.997,31.496-49.871C228.843,1.953,209.266,22.644,209.266,47.832z"/>
<g>
	<path style="fill:#485D6D;" d="M195.263,171.774c-1.124-1.165-2.635-1.807-4.256-1.807c-1.536,0-2.993,0.586-4.103,1.655
		l-10.676,10.288l-4.686-4.499c-1.108-1.06-2.561-1.644-4.093-1.644c-1.623,0-3.136,0.644-4.266,1.818
		c-2.255,2.353-2.177,6.102,0.171,8.36l8.784,8.433c1.107,1.062,2.561,1.648,4.096,1.648c1.538,0,2.996-0.588,4.103-1.657
		l14.772-14.232c1.136-1.095,1.778-2.57,1.807-4.149C196.947,174.408,196.358,172.912,195.263,171.774z"/>
	<path style="fill:#485D6D;" d="M195.263,280.054c-1.124-1.165-2.635-1.807-4.256-1.807c-1.536,0-2.993,0.585-4.103,1.655
		l-10.676,10.287l-4.686-4.498c-1.108-1.061-2.561-1.645-4.093-1.645c-1.623,0-3.136,0.644-4.266,1.819
		c-2.255,2.351-2.177,6.101,0.171,8.359l8.784,8.433c1.107,1.063,2.561,1.648,4.096,1.648c1.538,0,2.996-0.587,4.103-1.657
		l14.772-14.232c1.136-1.094,1.778-2.569,1.807-4.148C196.947,282.687,196.358,281.191,195.263,280.054z"/>
	<path style="fill:#485D6D;" d="M195.263,388.296c-1.124-1.165-2.635-1.807-4.256-1.807c-1.536,0-2.993,0.585-4.103,1.655
		l-10.676,10.287l-4.686-4.498c-1.108-1.061-2.561-1.644-4.093-1.644c-1.623,0-3.136,0.644-4.266,1.818
		c-2.255,2.351-2.177,6.101,0.171,8.359l8.784,8.433c1.107,1.063,2.561,1.65,4.096,1.65c1.538,0,2.996-0.588,4.103-1.658
		l14.772-14.231c1.136-1.095,1.778-2.57,1.807-4.149C196.947,390.93,196.358,389.434,195.263,388.296z"/>
	<path style="fill:#485D6D;" d="M301.972,167.911H239.39c-3.334,0-6.045-2.71-6.045-6.044c0-3.333,2.711-6.044,6.045-6.044h62.582
		c3.333,0,6.044,2.711,6.044,6.044S305.305,167.911,301.972,167.911z"/>
	<path style="fill:#485D6D;" d="M239.39,189.713h118.16c3.334,0,6.044,2.711,6.044,6.044c0,3.334-2.71,6.045-6.044,6.045H239.39
		c-3.334,0-6.045-2.711-6.045-6.045C233.345,192.424,236.056,189.713,239.39,189.713z"/>
	<path style="fill:#485D6D;" d="M239.39,267.704h62.582c3.333,0,6.044,2.71,6.044,6.044c0,3.333-2.711,6.044-6.044,6.044H239.39
		c-3.334,0-6.045-2.711-6.045-6.044C233.345,270.414,236.056,267.704,239.39,267.704z"/>
	<path style="fill:#485D6D;" d="M239.39,301.595h118.16c3.334,0,6.044,2.711,6.044,6.044c0,3.334-2.71,6.044-6.044,6.044H239.39
		c-3.334,0-6.045-2.71-6.045-6.044S236.056,301.595,239.39,301.595z"/>
	<path style="fill:#485D6D;" d="M239.39,374.956h62.582c3.333,0,6.044,2.711,6.044,6.044s-2.711,6.044-6.044,6.044H239.39
		c-3.334,0-6.045-2.711-6.045-6.044C233.345,377.665,236.056,374.956,239.39,374.956z"/>
	<path style="fill:#485D6D;" d="M239.39,408.846h118.16c3.334,0,6.044,2.71,6.044,6.044s-2.71,6.044-6.044,6.044H239.39
		c-3.334,0-6.045-2.71-6.045-6.044S236.056,408.846,239.39,408.846z"/>
</g>
<g>
</g>
<g>
</g>
<g>
</g>
<g>
</g>
<g>
</g>
<g>
</g>
<g>
</g>
<g>
</g>
<g>
</g>
<g>
</g>
<g>
</g>
<g>
</g>
<g>
</g>
<g>
</g>
<g>
</g>
</svg>
