<?xml version="1.0" encoding="iso-8859-1"?>
<!-- Generator: Adobe Illustrator 19.0.0, SVG Export Plug-In . SVG Version: 6.00 Build 0)  -->
<svg version="1.1" id="Layer_1" xmlns="http://www.w3.org/2000/svg" xmlns:xlink="http://www.w3.org/1999/xlink" x="0px" y="0px"
	 viewBox="0 0 512.001 512.001" style="enable-background:new 0 0 512.001 512.001;" xml:space="preserve">
<path style="fill:#6699CC;" d="M511.056,277.136c-1.519-3.037-4.624-4.956-8.018-4.956H218.464c-2.413,0-4.723,0.972-6.409,2.696
	l-48.818,49.925c-0.156,0.159-0.305,0.324-0.448,0.492l-0.221,0.262c-0.152,0.182-0.296,0.367-0.434,0.561
	c-2.15,3.003-4.53,5.818-7.074,8.363c-9.946,9.947-23.172,15.423-37.239,15.423c-14.066-0.002-27.291-5.479-37.237-15.428
	c-7.853-7.849-12.177-18.29-12.176-29.394c0-11.103,4.326-21.541,12.178-29.394c0.772-0.772,1.587-1.513,2.42-2.197
	c0.138-0.113,0.272-0.23,0.402-0.35l46.031-42.637c2.349-2.174,3.359-5.441,2.649-8.562c-0.71-3.121-3.031-5.628-6.09-6.576
	l-3.711-1.147c-8.567-2.65-17.492-3.993-26.528-3.995c-23.9,0-46.368,9.307-63.262,26.203c-43.331,43.332-43.331,113.836,0,157.171
	c25.127,25.13,58.427,39.491,93.767,40.437c0.08,0.002,0.16,0.002,0.24,0.002H395c2.82,0,5.475-1.327,7.168-3.582l108.038-143.928
	C512.244,283.809,512.573,280.173,511.056,277.136z"/>
<path style="opacity:0.19;fill:#202121;enable-background:new    ;" d="M262.296,272.181h-43.832c-2.413,0-4.723,0.972-6.409,2.696
	l-48.818,49.925c-0.156,0.159-0.305,0.324-0.448,0.492l-0.221,0.262c-0.152,0.182-0.296,0.367-0.434,0.561
	c-2.15,3.003-4.53,5.818-7.074,8.363c-9.946,9.947-23.172,15.423-37.239,15.423c-14.066-0.002-27.291-5.479-37.237-15.428
	c-7.853-7.849-12.177-18.29-12.176-29.394c0-11.103,4.326-21.541,12.178-29.394c0.772-0.772,1.587-1.513,2.42-2.197
	c0.138-0.113,0.272-0.23,0.402-0.35l46.031-42.637c2.349-2.174,3.359-5.441,2.649-8.562c-0.71-3.121-3.031-5.628-6.09-6.576
	l-3.711-1.147c-8.567-2.65-17.492-3.993-26.528-3.995c-23.9,0-46.368,9.307-63.262,26.203c-43.331,43.332-43.331,113.836,0,157.171
	c21.306,21.308,48.49,34.869,77.81,39.08L262.296,272.181z"/>
<g>
	<path style="fill:#6699CC;" d="M156.472,231.755c-4.642-4.298-9.705-8.091-15.051-11.275l-7.211-4.292l-57.845,53.8l33.925-5.451
		c4.213,0.853,8.145,2.506,11.705,4.922l7.597,5.162l35.5-34.886L156.472,231.755z"/>
	<path style="fill:#6699CC;stroke:#202121;stroke-width:16;stroke-miterlimit:10;" d="M160.106,251.587l-26.981,26.513l-0.376,0.336
		l-2.193,1.181c-0.067,0.02-0.133,0.033-0.2,0.048l-0.387,0.094c-0.137,0.026-0.273,0.039-0.41,0.057l-0.163,0.026
		c-0.375,0.035-0.69,0.035-1.19-0.002c-0.112-0.011-0.223-0.031-0.41-0.061l-0.175-0.024c-0.095-0.017-0.188-0.044-0.365-0.09
		l-0.219-0.053c-0.081-0.024-0.16-0.055-0.24-0.085l-0.313-0.109c-0.09-0.037-0.176-0.081-0.342-0.162l-0.221-0.101
		c-0.069-0.035-0.132-0.077-0.196-0.116l-0.318-0.19c-0.062-0.042-0.121-0.088-0.183-0.133l-0.324-0.24
		c-0.046-0.038-0.091-0.08-0.135-0.121l-0.32-0.29c-5.54-5.54-12.906-8.591-20.742-8.591s-15.202,3.051-20.741,8.591
		c-7.219,7.215-11.193,16.809-11.193,27.015c0,10.206,3.974,19.802,11.192,27.017c9.313,9.314,21.693,14.443,34.86,14.443
		c13.168,0,25.55-5.129,34.862-14.439c2.109-2.11,4.1-4.404,5.919-6.825l0.211-0.342c0.287-0.573,0.657-1.093,1.097-1.543
		l0.265-0.316c7.202-10.496,11.009-22.821,11.01-35.642c0-11.903-3.319-23.481-9.599-33.489L160.106,251.587z M126.643,281.821
		L126.643,281.821L126.643,281.821L126.643,281.821z"/>
	<path style="fill:#6699CC;" d="M169.181,249.182l-7.408-11.8l-33.023,32.451c-6.956-6.032-15.748-9.321-25.047-9.321
		c-10.23,0-19.847,3.983-27.078,11.216c-8.912,8.907-13.821,20.753-13.821,33.354c0,12.602,4.907,24.448,13.818,33.355
		c11.005,11.007,25.636,17.068,41.199,17.068c15.562,0,30.193-6.059,41.2-17.065c2.406-2.405,4.676-5.023,6.747-7.779l1.798-2.512
		c8.23-11.997,12.582-26.075,12.583-40.715C180.15,273.847,176.357,260.618,169.181,249.182z"/>
</g>
<g>
	<path style="opacity:0.19;fill:#202121;enable-background:new    ;" d="M156.472,231.755c-4.642-4.298-9.705-8.091-15.051-11.275
		l-7.211-4.292l-57.845,53.8l33.925-5.451c4.213,0.853,8.145,2.506,11.705,4.922l7.597,5.162l35.5-34.886L156.472,231.755z"/>
	<path style="opacity:0.19;fill:#202121;enable-background:new    ;" d="M169.181,249.182l-7.408-11.8l-33.023,32.451
		c-6.956-6.032-15.748-9.321-25.047-9.321c-10.23,0-19.847,3.983-27.078,11.216c-8.912,8.907-13.821,20.753-13.821,33.354
		c0,12.602,4.907,24.448,13.818,33.355c11.005,11.007,25.636,17.068,41.199,17.068c15.562,0,30.193-6.059,41.2-17.065
		c2.406-2.405,4.676-5.023,6.747-7.779l1.798-2.512c8.23-11.997,12.582-26.075,12.583-40.715
		C180.15,273.847,176.357,260.618,169.181,249.182z"/>
</g>
<path style="fill:#6699CC;" d="M225.03,77.967c-20.534,0-40.026,7.835-54.886,22.064L44.234,225.82l37.835-17.884
	c5.051-0.913,19.094,2.285,24.09,2.285c22.402,0.002,36.82,13.246,52.661,29.088c0.961,0.96,2.738,4.733,3.922,6.094l-5.01,1.381
	c11.452,13.549,21.656,27.948,20.137,45.745l-3.553,38.123l110.201-120.765l1.273-1.146l0.79-1.289
	c11.49-14.1,17.816-31.886,17.816-50.114C304.394,113.572,268.792,77.967,225.03,77.967z"/>
<g style="opacity:0.19;">
	<path style="fill:#202121;" d="M105.846,210.21l98.393-98.298c14.86-14.229,34.353-22.063,54.886-22.063
		c2.799,0,5.563,0.149,8.287,0.433c-12.273-7.786-26.804-12.315-42.383-12.315c-20.534,0-40.026,7.835-54.886,22.064L44.234,225.82
		l37.835-17.884C87.025,207.042,100.616,210.094,105.846,210.21z"/>
</g>
<path style="fill:#485D6D;" d="M167.472,231.969c-0.212-0.281-0.44-0.552-0.692-0.809c-0.009-0.01-0.019-0.016-0.026-0.024
	c-1.28-1.468-2.595-2.912-3.985-4.305c-19.329-19.33-45.028-29.976-72.366-29.978c-0.001,0-0.001,0-0.003,0
	c-6.498,0-12.898,0.621-19.148,1.799L30.137,238.93c16.096-16.097,37.499-24.962,60.265-24.962c9.019,0,17.814,1.414,26.159,4.095
	L69.25,261.889c-1.198,0.984-2.353,2.03-3.464,3.14c-10.686,10.684-16.573,24.89-16.574,40.001c0,15.113,5.885,29.321,16.573,40.005
	c12.951,12.954,30.172,20.087,48.489,20.087c0.001,0,0.001,0,0.002,0c18.316,0,35.537-7.134,48.49-20.085
	c15.788-15.786,24.481-36.775,24.482-59.103C187.248,265.944,180.261,247.04,167.472,231.969z M133.535,225.664
	c5.385,3.171,10.443,6.964,15.099,11.331l-22.975,22.579c-6.038-4.184-12.938-6.867-20.245-7.861L133.535,225.664z M150.666,332.935
	c-9.722,9.721-22.646,15.073-36.391,15.073s-26.668-5.355-36.388-15.075c-7.455-7.453-11.559-17.362-11.559-27.902
	c0-10.542,4.105-20.448,11.56-27.902c5.638-5.637,13.134-8.744,21.109-8.744c0.001,0,0.002,0,0.002,0
	c7.974,0.002,15.471,3.107,21.109,8.744c0.103,0.106,0.214,0.196,0.322,0.294c0.102,0.092,0.2,0.188,0.305,0.273
	c0.119,0.098,0.245,0.186,0.369,0.276c0.108,0.081,0.214,0.166,0.326,0.238c0.129,0.087,0.266,0.162,0.398,0.24
	c0.112,0.066,0.219,0.138,0.331,0.197c0.141,0.074,0.285,0.136,0.43,0.201c0.112,0.05,0.221,0.109,0.335,0.155
	c0.149,0.062,0.301,0.11,0.454,0.16c0.112,0.039,0.221,0.085,0.334,0.117c0.156,0.047,0.316,0.079,0.475,0.117
	c0.112,0.026,0.221,0.061,0.332,0.083c0.157,0.028,0.316,0.046,0.475,0.068c0.115,0.016,0.23,0.039,0.343,0.051
	c0.14,0.013,0.279,0.013,0.418,0.02c0.136,0.007,0.271,0.02,0.406,0.02c0.273,0,0.548-0.013,0.818-0.038
	c0.011,0,0.021-0.002,0.032-0.004c0.26-0.027,0.521-0.065,0.779-0.113c0.055-0.011,0.109-0.028,0.163-0.042
	c0.213-0.044,0.425-0.092,0.635-0.154c0.074-0.022,0.148-0.051,0.222-0.075c0.186-0.061,0.374-0.12,0.557-0.196
	c0.088-0.034,0.172-0.08,0.258-0.117c0.167-0.074,0.335-0.148,0.499-0.232c0.094-0.048,0.184-0.108,0.277-0.162
	c0.15-0.085,0.302-0.168,0.447-0.262c0.097-0.063,0.189-0.14,0.283-0.206c0.137-0.1,0.275-0.194,0.408-0.3
	c0.093-0.074,0.18-0.162,0.272-0.244c0.116-0.101,0.236-0.199,0.348-0.307l27.522-27.05c6.798,10.592,10.457,22.909,10.457,35.796
	C170.135,303.69,163.22,320.38,150.666,332.935z"/>
<g>
</g>
<g>
</g>
<g>
</g>
<g>
</g>
<g>
</g>
<g>
</g>
<g>
</g>
<g>
</g>
<g>
</g>
<g>
</g>
<g>
</g>
<g>
</g>
<g>
</g>
<g>
</g>
<g>
</g>
</svg>
