<?xml version="1.0" encoding="iso-8859-1"?>
<!-- Generator: Adobe Illustrator 19.0.0, SVG Export Plug-In . SVG Version: 6.00 Build 0)  -->
<svg version="1.1" id="Layer_1" xmlns="http://www.w3.org/2000/svg" xmlns:xlink="http://www.w3.org/1999/xlink" x="0px" y="0px"
	 viewBox="0 0 512 512" style="enable-background:new 0 0 512 512;" xml:space="preserve">
<path style="fill:#485D6D;" d="M325.024,68.291c0,7.219-5.853,13.071-13.071,13.071H198.664c-7.218,0-13.071-5.852-13.071-13.071
	V37.76c0-7.22,5.852-13.071,13.071-13.071h113.289c7.218,0,13.071,5.852,13.071,13.071V68.291z"/>
<path style="fill:#F04C35;" d="M303.238,171.668c0,7.219-5.851,13.071-13.07,13.071h-66.811c-7.219,0-13.073-5.852-13.073-13.071
	V94.434c0-7.22,5.853-13.072,13.073-13.072h66.811c7.218,0,13.07,5.852,13.07,13.072V171.668z"/>
<path style="fill:#C9D1E3;" d="M451.356,131.963c-11.917-4.259-36.803-12.477-69.608-19.675l-2.733-0.601L335.643,223.53
	c-0.739,1.902-2.532,3.129-4.571,3.129H180.928c-2.04,0-3.835-1.228-4.572-3.129l-43.371-111.843l-2.734,0.6
	c-32.814,7.196-57.696,15.416-69.608,19.676l-2.489,0.89l43.429,322.901h308.834l43.43-322.9L451.356,131.963z"/>
<path style="fill:#6699CC;" d="M511.217,110.5c-2.588-8.836-14.763-17.899-36.195-26.937c-19.428-8.194-46.243-15.957-75.506-21.859
	l-10.794-2.176l-19.381,49.984l14.831,3.314c35.424,7.917,60.68,16.706,69.672,20.028L410.41,455.754H101.583L58.152,132.852
	c9.007-3.325,34.309-12.131,69.671-20.029l14.833-3.313l-19.382-49.985l-10.793,2.176c-29.246,5.9-56.052,13.659-75.474,21.846
	C15.62,92.563,3.44,101.617,0.793,110.48L0,113.165l53.381,396.733h405.238L512,113.155L511.217,110.5z"/>
<g style="opacity:0.19;">
	<path style="fill:#485D6D;" d="M25.332,125.147l0.796-2.685c2.645-8.864,14.827-17.916,36.211-26.931
		c17.553-7.4,41.143-14.443,67.107-20.086l-6.171-15.919l-10.793,2.176c-29.246,5.9-56.052,13.659-75.474,21.846
		C15.62,92.563,3.44,101.617,0.793,110.48L0,113.165l53.381,396.733h23.723L25.332,125.147z"/>
</g>
<path style="fill:#6699CC;" d="M394.023,64.207l-0.599-1.426l-0.24-0.517c-0.594-1.323-1.322-2.718-2.176-4.153l-0.076-0.127
	c-3.586-5.858-14.557-20.922-38.961-34.286c-22.399-12.19-49.305-19.297-80.013-21.129l-0.288-0.016
	c-1.15-0.068-2.31-0.128-3.538-0.183l-0.99-0.038c-0.958-0.039-1.915-0.078-2.886-0.105c-0.485-0.014-0.981-0.025-1.484-0.037
	l-1.077-0.025c-0.498-0.012-0.99-0.023-1.5-0.032c-2.844-0.042-5.705-0.043-8.664,0.009l-0.996,0.023
	c-1.121,0.024-2.24,0.05-3.394,0.092l-0.91,0.035c-1.172,0.046-2.335,0.095-3.52,0.158L242.15,2.48
	c-1.309,0.072-2.604,0.152-3.819,0.239l-0.153,0.01c-25.781,1.852-49.282,7.756-69.875,17.565
	c-26.13,12.531-43.791,30.379-49.331,41.864l-2.772,6.253l61.368,158.246h156.858L393.89,73.322l1.763-4.534L394.023,64.207z
	 M300.468,174.138H211.53l-35.956-95.804c1.238-2.46,6.996-8.172,17.415-13.203c11.393-5.5,31.573-12.055,63.01-12.055
	c32.512,0,52.635,6.546,63.786,12.038c10.713,5.272,15.601,10.801,16.657,13.17L300.468,174.138z"/>
<g style="opacity:0.19;">
	<path style="fill:#485D6D;" d="M140.02,62.16c5.539-11.485,23.202-29.333,49.334-41.864c20.592-9.807,44.089-15.712,69.871-17.565
		l0.154-0.01c1.216-0.087,2.512-0.167,3.817-0.239l0.565-0.031c0.998-0.054,1.986-0.094,2.975-0.133
		c-0.82-0.033-1.645-0.067-2.477-0.09c-0.485-0.014-0.981-0.025-1.484-0.037l-1.077-0.025c-0.498-0.012-0.99-0.023-1.5-0.032
		c-2.844-0.042-5.705-0.043-8.664,0.009l-0.996,0.023c-1.121,0.024-2.24,0.05-3.394,0.092l-0.91,0.035
		c-1.172,0.046-2.335,0.095-3.52,0.158l-0.561,0.031c-1.309,0.072-2.604,0.152-3.819,0.239l-0.153,0.01
		c-25.781,1.852-49.282,7.756-69.875,17.565c-26.13,12.531-43.791,30.379-49.331,41.864l-2.772,6.253l61.368,158.246h21.047
		L137.252,68.413L140.02,62.16z"/>
</g>
<path style="fill:#F04C35;" d="M277.916,171.129c-3.68-8.925-12.284-14.692-21.917-14.692c-9.639,0-18.24,5.767-21.915,14.692
	l-1.238,3.008h46.307L277.916,171.129z"/>
<path style="fill:#C9D1E3;" d="M335.448,76.658c-3.073-4.125-11.099-10.284-24.412-15.189l-3.048-1.124l-3.713,9.902
	c-0.712,1.905-2.559,3.184-4.592,3.184c-0.584,0-1.163-0.105-1.717-0.315c-2.532-0.948-3.819-3.778-2.87-6.31l3.435-9.17
	l-3.703-0.796c-9.272-1.997-19.547-3.21-30.544-3.61l-3.386-0.122v10.681c0,2.703-2.198,4.902-4.9,4.902
	c-2.704,0-4.9-2.199-4.9-4.902V53.11l-3.394,0.127c-10.943,0.412-21.212,1.661-30.514,3.713l-3.677,0.812l3.39,9.046
	c0.459,1.228,0.412,2.558-0.13,3.751c-0.543,1.191-1.516,2.1-2.744,2.559c-0.555,0.209-1.13,0.313-1.715,0.313
	c-2.035,0-3.88-1.279-4.593-3.184l-3.644-9.727l-3.061,1.145c-13.061,4.887-21.148,10.978-24.365,15.049l-1.141,1.447l36.018,95.976
	h10.138l0.566-2.564c2.891-13.084,13.216-23.408,26.299-26.299l2.566-0.566V93.732c0-2.703,2.197-4.902,4.9-4.902
	c2.703,0,4.9,2.2,4.9,4.902v50.978l2.564,0.566c13.087,2.891,23.41,13.214,26.302,26.299l0.566,2.564h10.138l36.047-96.049
	L335.448,76.658z"/>
<g>
	<path style="opacity:0.19;fill:#485D6D;enable-background:new    ;" d="M194.735,80.009l1.144-1.446
		c1.985-2.513,5.832-5.797,11.553-9.09l-3.353-8.952l-3.061,1.145c-13.061,4.887-21.148,10.978-24.365,15.049l-1.141,1.447
		l36.018,95.976h10.138l0.566-2.564c0.715-3.234,1.889-6.3,3.44-9.127L194.735,80.009z"/>
	<path style="opacity:0.19;fill:#485D6D;enable-background:new    ;" d="M82.397,148.48l2.49-0.89
		c10.156-3.632,29.749-10.143,55.643-16.444l-7.545-19.459l-2.734,0.6c-32.814,7.196-57.696,15.416-69.608,19.676l-2.489,0.89
		l43.429,322.901h22.144L82.397,148.48z"/>
	<path style="opacity:0.19;fill:#485D6D;enable-background:new    ;" d="M451.356,131.963
		c-11.917-4.259-36.803-12.477-69.608-19.675l-2.733-0.601L335.643,223.53c-0.739,1.902-2.532,3.129-4.571,3.129h25.001
		c0,0,4.297-0.286,6.491-5.945l31.544-81.336l2.734,0.6c22.175,4.866,40.725,10.197,54.103,14.457l2.901-21.581L451.356,131.963z"/>
	<path style="opacity:0.19;fill:#485D6D;enable-background:new    ;" d="M284.445,55.016c-6.381-0.917-13.11-1.529-20.16-1.785
		l-3.386-0.122v2.224C268.028,54.848,275.855,54.707,284.445,55.016z"/>
	<path style="opacity:0.19;fill:#485D6D;enable-background:new    ;" d="M220.245,63.513l3.057-1.145l0.034,0.082
		c2.875-0.996,6.009-1.942,9.416-2.808l-0.015-0.033l1.218-0.269c5.1-1.244,10.798-2.302,17.143-3.081V53.11l-3.394,0.127
		c-10.943,0.412-21.212,1.661-30.514,3.713l-3.677,0.812l2.753,7.347C217.538,64.567,218.859,64.032,220.245,63.513z"/>
</g>
<g>
</g>
<g>
</g>
<g>
</g>
<g>
</g>
<g>
</g>
<g>
</g>
<g>
</g>
<g>
</g>
<g>
</g>
<g>
</g>
<g>
</g>
<g>
</g>
<g>
</g>
<g>
</g>
<g>
</g>
</svg>
