<?xml version="1.0" encoding="iso-8859-1"?>
<!-- Generator: Adobe Illustrator 19.0.0, SVG Export Plug-In . SVG Version: 6.00 Build 0)  -->
<svg version="1.1" id="Layer_1" xmlns="http://www.w3.org/2000/svg" xmlns:xlink="http://www.w3.org/1999/xlink" x="0px" y="0px"
	 viewBox="0 0 512.001 512.001" style="enable-background:new 0 0 512.001 512.001;" xml:space="preserve">
<circle style="fill:#485D6D;" cx="255.182" cy="295.256" r="165.65"/>
<g>
	<path style="fill:#C9D1E3;" d="M432.501,134.823l-19.134-17.901c-3.166-2.963-8.118-2.855-11.153,0.24l-23.422,23.889
		c-1.581,1.613-2.405,3.821-2.267,6.078c0.141,2.256,1.23,4.349,2.998,5.756l1.981,1.576c5.388,4.285,10.634,8.918,15.596,13.772
		l1.639,1.602c1.492,1.459,3.497,2.274,5.581,2.274c0.036,0,0.071,0,0.11,0c2.122-0.028,4.146-0.904,5.625-2.43l22.726-23.474
		c1.49-1.537,2.298-3.609,2.245-5.748C434.973,138.316,434.064,136.286,432.501,134.823z"/>
	<path style="fill:#C9D1E3;" d="M286.358,76.789h-60.561c-4.408,0-7.983,3.573-7.983,7.983v20.049c0,2.299,0.993,4.487,2.721,6.003
		c1.731,1.514,4.027,2.213,6.31,1.91l2.579-0.342c17.57-2.327,35.737-2.327,53.305,0l2.579,0.342c0.35,0.047,0.701,0.07,1.049,0.07
		c1.925,0,3.798-0.697,5.261-1.98c1.731-1.515,2.722-3.705,2.722-6.003V84.771C294.34,80.361,290.768,76.789,286.358,76.789z"/>
	<path style="fill:#C9D1E3;" d="M227.274,35.578h57.61c2.801,0,5.399-1.467,6.843-3.87c1.442-2.4,1.521-5.387,0.205-7.857
		l-1.782-3.352C283.427,7.854,270.372,0,256.078,0c-14.297,0-27.352,7.855-34.072,20.497l-1.782,3.352
		c-1.316,2.471-1.236,5.456,0.206,7.857C221.873,34.11,224.47,35.578,227.274,35.578z"/>
</g>
<g style="opacity:0.19;">
	<path style="fill:#202121;" d="M244.124,110.823c-1.731-1.515-2.721-3.705-2.721-6.003V84.771c0-4.41,3.573-7.983,7.982-7.983
		h-23.587c-4.408,0-7.983,3.573-7.983,7.983v20.049c0,2.299,0.993,4.487,2.721,6.003c1.731,1.514,4.027,2.213,6.31,1.91l2.579-0.342
		c4.935-0.652,9.922-1.102,14.924-1.39C244.276,110.94,244.196,110.887,244.124,110.823z"/>
	<path style="fill:#202121;" d="M267.871,111.006c4.983,0.285,9.945,0.735,14.861,1.384l2.579,0.342
		c0.35,0.047,0.701,0.07,1.049,0.07c1.829,0,3.609-0.637,5.038-1.802C283.57,110.553,275.697,110.553,267.871,111.006z"/>
</g>
<path style="opacity:0.19;fill:#202121;enable-background:new    ;" d="M244.018,31.708c-1.443-2.4-1.522-5.387-0.205-7.857
	l1.782-3.352c4.803-9.039,12.856-15.61,22.276-18.634C264.115,0.658,260.151,0,256.078,0c-14.297,0-27.352,7.855-34.072,20.497
	l-1.782,3.352c-1.316,2.471-1.236,5.456,0.206,7.857c1.441,2.403,4.038,3.87,6.843,3.87h23.585
	C248.057,35.578,245.461,34.11,244.018,31.708z"/>
<g>
	<path style="fill:#6699CC;" d="M256.086,316.883c1.349,0,2.673-0.27,3.933-0.804c2.492-1.053,4.424-3.013,5.441-5.519
		c1.018-2.505,0.998-5.259-0.056-7.749c-1.589-3.759-5.254-6.19-9.336-6.19c-1.347,0-2.673,0.27-3.933,0.804
		c-2.491,1.053-4.425,3.013-5.441,5.519c-1.018,2.505-0.998,5.259,0.056,7.749C248.341,314.456,252.004,316.883,256.086,316.883z"/>
	<path style="fill:#6699CC;" d="M256.086,319.163c-5,0-9.488-2.975-11.436-7.582c-1.293-3.052-1.317-6.423-0.069-9.494
		c1.246-3.07,3.613-5.473,6.667-6.762c1.543-0.656,3.166-0.984,4.822-0.984c5,0,9.49,2.976,11.436,7.582
		c1.293,3.052,1.317,6.423,0.069,9.495c-1.246,3.069-3.613,5.473-6.667,6.762C259.365,318.834,257.741,319.163,256.086,319.163z
		 M256.069,298.903c-1.042,0-2.067,0.209-3.047,0.623c-1.932,0.817-3.428,2.337-4.213,4.276c-0.789,1.942-0.772,4.073,0.043,6.002
		c1.234,2.916,4.072,4.799,7.235,4.799c1.04,0,2.067-0.21,3.047-0.624c1.931-0.815,3.427-2.334,4.214-4.276
		c0.791-1.942,0.775-4.072-0.043-6.002C262.073,300.785,259.234,298.903,256.069,298.903z"/>
</g>
<path style="fill:#F0F3FA;" d="M395.668,320.945c-7.824,0-14.189-6.368-14.189-14.191c0-7.824,6.364-14.192,14.189-14.192h12.622
	c-2.848-30.592-15.039-59.96-34.742-83.691l-8.871,8.869c-2.681,2.681-6.245,4.155-10.037,4.155c-3.788,0-7.352-1.474-10.033-4.155
	c-5.532-5.535-5.532-14.537-0.002-20.069l8.871-8.871c-23.734-19.704-53.101-31.895-83.694-34.744v12.624
	c0,7.823-6.364,14.189-14.189,14.189c-7.826,0-14.191-6.366-14.191-14.189v-12.624c-30.593,2.848-59.96,15.04-83.694,34.744
	l8.871,8.871c5.531,5.532,5.531,14.534,0,20.069c-2.683,2.681-6.248,4.155-10.037,4.155c-3.79,0-7.353-1.474-10.036-4.155
	l-8.871-8.869c-19.703,23.73-31.893,53.099-34.74,83.691h12.617c7.826,0,14.193,6.368,14.193,14.192
	c0,7.823-6.367,14.191-14.193,14.191h-12.615c2.846,30.595,15.033,59.958,34.74,83.694l8.871-8.871
	c2.681-2.682,6.245-4.156,10.036-4.156c3.789,0,7.354,1.474,10.035,4.156c5.532,5.534,5.532,14.537,0.002,20.071l-8.871,8.87
	c23.734,19.706,53.096,31.893,83.694,34.743V446.83c0-7.824,6.364-14.192,14.191-14.192c7.824,0,14.189,6.368,14.189,14.192v12.622
	c30.597-2.848,59.96-15.036,83.694-34.743l-8.871-8.87c-5.531-5.534-5.531-14.537,0-20.071c2.681-2.682,6.248-4.156,10.036-4.156
	c3.791,0,7.355,1.474,10.037,4.156l8.871,8.871c19.705-23.736,31.892-53.099,34.742-83.694L395.668,320.945L395.668,320.945z
	 M364.356,320.947h-77.42c-3.573,7.91-9.899,14.096-17.947,17.497c-4.269,1.804-8.773,2.72-13.388,2.72
	c-13.859,0-26.302-8.247-31.698-21.014c-3.578-8.463-3.648-17.816-0.193-26.332c3.348-8.247,9.611-14.755,17.693-18.407v-48.264
	c0-7.823,6.364-14.191,14.191-14.191c7.824,0,14.189,6.368,14.189,14.191v48.268c7.582,3.431,13.695,9.512,17.154,17.148h77.418
	c7.826,0,14.192,6.366,14.192,14.19C378.548,314.58,372.182,320.947,364.356,320.947z"/>
<path style="fill:#6699CC;" d="M407.989,169.036c-34.053-37.562-80.399-61.142-130.521-66.401l-0.864-0.091
	c-1.321-0.133-2.646-0.248-3.976-0.354c-0.63-0.051-1.261-0.101-1.889-0.144c-1.159-0.083-2.316-0.16-3.488-0.223
	c-0.881-0.047-1.763-0.085-2.657-0.12l-0.586-0.024c-0.772-0.033-1.546-0.066-2.325-0.084c-1.602-0.045-3.207-0.069-4.782-0.073
	l-0.276-0.004c-0.414-0.008-0.83-0.008-1.245,0l-0.244,0.004c-1.608,0.004-3.213,0.028-4.819,0.073
	c-0.775,0.02-1.548,0.051-2.321,0.084l-0.597,0.024c-0.883,0.035-1.767,0.073-2.655,0.122c-1.163,0.062-2.321,0.138-3.476,0.221
	c-0.632,0.044-1.262,0.093-1.897,0.144c-1.325,0.107-2.653,0.221-3.984,0.354l-0.873,0.094
	c-50.104,5.257-96.449,28.837-130.5,66.399c-34.299,37.834-53.187,86.742-53.187,137.718c0,113.129,92.037,205.203,205.169,205.246
	h0.007c113.13-0.043,205.169-92.117,205.169-205.246C461.175,255.779,442.287,206.87,407.989,169.036z M365.065,414.172
	l-1.564,1.567c-28.853,28.441-66.976,44.111-107.357,44.129l-0.143-0.002l-0.147,0.002c-40.376-0.02-78.502-15.69-107.35-44.129
	l-1.566-1.567c-28.455-28.863-44.125-67.013-44.125-107.419s15.67-78.553,44.125-107.419l1.57-1.569
	c28.846-28.437,66.971-44.106,107.348-44.127h0.296c40.378,0.02,78.495,15.689,107.343,44.127l1.569,1.569
	c28.455,28.867,44.125,67.014,44.125,107.419S393.52,385.309,365.065,414.172z"/>
<g style="opacity:0.19;">
	<path style="fill:#202121;" d="M75.917,306.754c0-50.976,18.889-99.884,53.187-137.718c34.052-37.562,80.397-61.142,130.499-66.399
		l0.873-0.094c1.333-0.133,2.66-0.248,3.986-0.354c0.634-0.051,1.264-0.101,1.897-0.144c0.725-0.051,1.456-0.094,2.187-0.141
		c-0.432-0.026-0.86-0.058-1.295-0.082c-0.881-0.047-1.763-0.085-2.657-0.12l-0.586-0.024c-0.772-0.033-1.546-0.066-2.325-0.084
		c-1.602-0.045-3.207-0.069-4.782-0.073l-0.276-0.004c-0.414-0.008-0.83-0.008-1.245,0l-0.244,0.004
		c-1.608,0.004-3.213,0.028-4.819,0.073c-0.775,0.02-1.548,0.051-2.321,0.084l-0.597,0.024c-0.883,0.035-1.767,0.073-2.655,0.122
		c-1.163,0.062-2.321,0.138-3.476,0.221c-0.632,0.044-1.262,0.093-1.897,0.144c-1.325,0.107-2.653,0.221-3.984,0.354l-0.873,0.094
		c-50.104,5.257-96.449,28.837-130.5,66.399c-34.299,37.834-53.187,86.742-53.187,137.718c0,113.129,92.037,205.203,205.169,205.246
		h0.007c4.211,0,8.39-0.145,12.54-0.399C161.233,505.055,75.917,415.671,75.917,306.754z"/>
</g>
<path style="fill:#485D6D;" d="M324.748,73.415c0,6.853-5.556,12.412-12.411,12.412H198.038c-6.856,0-12.411-5.559-12.411-12.412
	V37.729c0-6.855,5.556-12.414,12.411-12.414h114.299c6.855,0,12.411,5.559,12.411,12.414V73.415z"/>
<g style="opacity:0.19;">
	<path style="fill:#202121;" d="M170.411,204.757c18.507-22.665,42.962-40.278,70.992-50.452v-0.249
		c-30.593,2.848-59.96,15.04-83.694,34.744l8.871,8.871C168.594,199.685,169.864,202.159,170.411,204.757z"/>
	<path style="fill:#202121;" d="M169.793,410.862c-0.691,1.812-1.753,3.519-3.211,4.978l-8.871,8.87
		c21.221,17.619,46.945,29.205,74.022,33.502C207.438,447.585,186.224,431.235,169.793,410.862z"/>
	<path style="fill:#202121;" d="M133.58,308.194c0-31.722,9.034-61.329,24.655-86.41c-0.557,0.068-1.12,0.111-1.691,0.111
		c-3.79,0-7.353-1.474-10.036-4.155l-8.871-8.869c-19.703,23.73-31.893,53.099-34.74,83.691h12.617
		c7.826,0,14.193,6.368,14.193,14.192c0,7.823-6.367,14.191-14.193,14.191h-12.616c2.846,30.595,15.033,59.958,34.74,83.694
		l8.871-8.871c2.653-2.651,6.168-4.119,9.911-4.15C141.917,367.188,133.58,338.667,133.58,308.194z"/>
</g>
<path style="opacity:0.19;fill:#202121;enable-background:new    ;" d="M212.014,49.847h112.733V37.729
	c0-6.855-5.556-12.414-12.411-12.414H198.038c-6.856,0-12.411,5.559-12.411,12.414v35.686c0,6.853,5.556,12.412,12.411,12.412
	h13.978v-35.98H212.014z"/>
<path style="fill:#FAFBFC;" d="M395.668,292.563h12.622c-2.848-30.592-15.039-59.96-34.742-83.691l-8.871,8.869
	c-2.681,2.681-6.245,4.155-10.037,4.155c-3.788,0-7.352-1.474-10.033-4.155c-5.532-5.535-5.532-14.537-0.002-20.069l8.871-8.871
	c-13.615-11.305-29.09-20.12-45.581-26.134c-14.672,1.844-28.544,6.257-41.156,12.768c-2.229,2.831-5.506,4.789-9.246,5.292
	c-34.807,21.952-57.937,60.738-57.937,104.929c0,68.466,55.501,123.967,123.966,123.967c5.831,0,11.566-0.412,17.183-1.19
	c-0.834-4.451,0.463-9.227,3.9-12.666c2.681-2.682,6.248-4.156,10.036-4.156c3.791,0,7.355,1.474,10.037,4.156l4.98,4.98
	c3.627-1.456,7.172-3.076,10.622-4.856c15.746-22.026,25.503-48.007,28.011-74.946h-12.622c-7.824,0-14.189-6.368-14.189-14.191
	C381.479,298.93,387.844,292.563,395.668,292.563z M364.356,320.947h-77.42c-3.573,7.91-9.899,14.096-17.947,17.497
	c-4.269,1.804-8.773,2.72-13.388,2.72c-13.859,0-26.302-8.247-31.698-21.014c-3.578-8.463-3.648-17.816-0.193-26.332
	c3.348-8.247,9.611-14.755,17.693-18.407v-48.264c0-7.823,6.364-14.191,14.191-14.191c7.824,0,14.189,6.368,14.189,14.191v48.268
	c7.582,3.431,13.695,9.512,17.154,17.148h77.418c7.826,0,14.192,6.366,14.192,14.19C378.548,314.58,372.182,320.947,364.356,320.947
	z"/>
<g>
	<rect x="290.506" y="25.316" style="fill:#364A56;" width="17.104" height="60.509"/>
	<rect x="261.257" y="25.316" style="fill:#364A56;" width="17.105" height="60.509"/>
	<rect x="232.008" y="25.316" style="fill:#364A56;" width="17.105" height="60.509"/>
	<rect x="202.77" y="25.316" style="fill:#364A56;" width="17.104" height="60.509"/>
</g>
<g>
</g>
<g>
</g>
<g>
</g>
<g>
</g>
<g>
</g>
<g>
</g>
<g>
</g>
<g>
</g>
<g>
</g>
<g>
</g>
<g>
</g>
<g>
</g>
<g>
</g>
<g>
</g>
<g>
</g>
</svg>
