<?xml version="1.0" encoding="iso-8859-1"?>
<!-- Generator: Adobe Illustrator 19.0.0, SVG Export Plug-In . SVG Version: 6.00 Build 0)  -->
<svg version="1.1" id="Layer_1" xmlns="http://www.w3.org/2000/svg" xmlns:xlink="http://www.w3.org/1999/xlink" x="0px" y="0px"
	 viewBox="0 0 512 512" style="enable-background:new 0 0 512 512;" xml:space="preserve">
<path style="fill:#C9D1E3;" d="M126.928,12.082c-3.817-4.675-9.505-7.357-15.608-7.357c-3.279,0-8.154,0.79-12.765,4.551
	l-9.759,7.964c-4.181,3.408-6.785,8.246-7.332,13.619c-0.546,5.373,1.026,10.627,4.36,14.715l21.386,26.858l41.864-32.534
	L126.928,12.082z"/>
<path style="opacity:0.19;fill:#202121;enable-background:new    ;" d="M119.109,46.924l-0.138,0.108L97.582,20.173
	c-1.715-2.103-2.954-4.517-3.689-7.094l-5.098,4.161c-4.181,3.408-6.785,8.246-7.332,13.619c-0.546,5.373,1.026,10.627,4.36,14.715
	l21.386,26.858l19.898-15.461L119.109,46.924z"/>
<polygon style="fill:#C9D1E3;" points="113.961,313.085 90.661,396.741 178.954,396.741 "/>
<polygon style="opacity:0.19;fill:#202121;enable-background:new    ;" points="123.621,377.967 134.374,339.359 113.961,313.085 
	90.661,396.741 178.954,396.741 164.367,377.967 "/>
<rect x="41.682" y="421.271" style="fill:#C9D1E3;" width="428.638" height="79.934"/>
<polygon style="opacity:0.19;fill:#202121;enable-background:new    ;" points="74.444,450.718 470.318,450.718 470.318,421.268 
	41.682,421.268 41.682,501.202 74.444,501.202 "/>
<rect x="41.682" y="396.743" style="fill:#C9D1E3;" width="428.638" height="30.05"/>
<rect x="41.682" y="396.743" style="opacity:0.19;fill:#202121;enable-background:new    ;" width="32.762" height="30.05"/>
<g>
	<path style="fill:#485D6D;" d="M491.791,377.967h-18.16c-4.88,0-8.835,3.956-8.835,8.835V498.44c0,4.879,3.955,8.835,8.835,8.835
		h18.16c11.143,0,20.209-9.066,20.209-20.209v-88.891C512,387.033,502.934,377.967,491.791,377.967z"/>
	<path style="fill:#485D6D;" d="M38.369,377.967H20.21C9.067,377.967,0,387.033,0,398.176v88.891
		c0,11.143,9.067,20.209,20.21,20.209h18.159c4.879,0,8.835-3.956,8.835-8.835V386.802
		C47.204,381.923,43.248,377.967,38.369,377.967z"/>
	<path style="fill:#485D6D;" d="M147.505,147.976c-2.85,1.052-5.824,1.588-8.839,1.588c-4.001,0-7.842-0.917-11.415-2.722
		l-11.999-6.07l-71.54,255.969h52.681l71.375-256.25L147.505,147.976z"/>
</g>
<path style="opacity:0.19;fill:#202121;enable-background:new    ;" d="M127.252,146.841l-11.999-6.07l-71.541,255.97H69.55
	l69.085-247.179C134.646,149.556,130.814,148.642,127.252,146.841z"/>
<path id="SVGCleanerId_0" style="fill:#485D6D;" d="M135.709,92.446l-8.366,6.667c-11.26,4.942-18.514,16.022-18.514,28.345
	c0,17.059,13.88,30.94,30.941,30.94c10.474,0,20.127-5.218,25.871-13.965l5.995-6.87L135.709,92.446z"/>
<g>
	<path id="SVGCleanerId_0_1_" style="fill:#485D6D;" d="M135.709,92.446l-8.366,6.667c-11.26,4.942-18.514,16.022-18.514,28.345
		c0,17.059,13.88,30.94,30.941,30.94c10.474,0,20.127-5.218,25.871-13.965l5.995-6.87L135.709,92.446z"/>
</g>
<path style="opacity:0.19;fill:#202121;enable-background:new    ;" d="M126.224,137.674c0-12.323,7.252-23.403,18.514-28.345
	l2.701-2.152l-11.729-14.731l-8.366,6.667c-11.26,4.942-18.514,16.022-18.514,28.345c0,14.977,10.701,27.501,24.859,30.336
	C129.042,152.38,126.224,145.353,126.224,137.674z"/>
<path style="fill:#485D6D;" d="M266.815,128.754h-46.674l-56.114-70.505c-0.44-0.554-0.858-1.014-1.248-1.428l-16.04-20.139
	l-41.863,32.536l82.586,103.711c3.749,4.594,9.591,7.336,15.628,7.336c0.764,0,1.535-0.043,2.317-0.134
	c0.925,0.104,1.842,0.158,2.731,0.158h58.677c13.91,0,25.225-11.559,25.225-25.767C292.039,140.314,280.723,128.754,266.815,128.754
	z"/>
<path style="opacity:0.19;fill:#202121;enable-background:new    ;" d="M291.805,151.047c-3.85,2.433-8.382,3.842-13.231,3.842
	h-58.677c-0.89,0-1.807-0.054-2.73-0.158c-0.783,0.091-1.553,0.134-2.318,0.134c-6.038,0-11.88-2.741-15.628-7.336l-62.218-78.134
	l22.107-17.181l-12.37-15.532l-22.105,17.181l0,0l-19.758,15.355l82.586,103.711c0.413,0.507,0.855,0.986,1.314,1.446
	c0.039,0.039,0.075,0.077,0.115,0.116c0.444,0.436,0.912,0.846,1.396,1.238c0.063,0.05,0.123,0.102,0.184,0.149
	c0.479,0.38,0.976,0.731,1.488,1.066c0.073,0.047,0.147,0.095,0.221,0.142c0.515,0.326,1.045,0.627,1.588,0.906
	c0.073,0.039,0.147,0.075,0.222,0.113c0.554,0.278,1.122,0.53,1.7,0.755c0.063,0.025,0.123,0.048,0.186,0.07
	c0.6,0.229,1.209,0.432,1.829,0.602c0.032,0.009,0.066,0.015,0.098,0.023c1.316,0.356,2.673,0.584,4.045,0.67h0.004l0,0
	c0.412,0.025,0.824,0.041,1.238,0.041c0.764,0,1.535-0.043,2.317-0.134c0.925,0.104,1.842,0.158,2.731,0.158h58.677
	c13.91,0,25.225-11.559,25.225-25.767C292.039,153.344,291.955,152.186,291.805,151.047z"/>
<g>
</g>
<g>
</g>
<g>
</g>
<g>
</g>
<g>
</g>
<g>
</g>
<g>
</g>
<g>
</g>
<g>
</g>
<g>
</g>
<g>
</g>
<g>
</g>
<g>
</g>
<g>
</g>
<g>
</g>
</svg>
